<?xml version="1.0" encoding="utf-8"?>
<!-- Generator: Adobe Illustrator 26.0.0, SVG Export Plug-In . SVG Version: 6.00 Build 0)  -->
<svg version="1.1" id="Capa_1" xmlns="http://www.w3.org/2000/svg" xmlns:xlink="http://www.w3.org/1999/xlink" x="0px" y="0px"
	 viewBox="0 0 365.9 95.7" style="enable-background:new 0 0 365.9 95.7;" xml:space="preserve">
<style type="text/css">
	.st0{fill:#FFFFFF;}
	.st1{fill:#EAE7C8;}
	.st2{fill:#FDF9D7;}
	.st3{fill:url(#SVGID_1_);}
	.st4{fill:#066225;}
	.st5{fill:url(#SVGID_00000078732935582993240800000003525331947682498463_);}
	.st6{fill:url(#SVGID_00000039818183985204665310000018245757412723310246_);}
	.st7{fill:url(#SVGID_00000127727531458051824290000002191200583331883930_);}
	.st8{fill:url(#SVGID_00000002358809388117832130000017928764591347778996_);}
	.st9{fill:#497A21;}
	.st10{fill:#69B142;}
	.st11{fill:#41702B;}
	.st12{fill:#2B4A1D;}
	.st13{fill:url(#SVGID_00000085253100843803372220000006817387820192557479_);}
	.st14{fill:url(#SVGID_00000163044276835927073670000014447254000613732527_);}
	.st15{fill:#4A7D27;}
	.st16{fill:#599429;}
	.st17{fill:#59A135;}
	.st18{fill:url(#SVGID_00000121266533209914986400000008027752455367486634_);}
	.st19{fill:url(#SVGID_00000168083202247072628630000009288013863203040941_);}
	.st20{fill:url(#SVGID_00000098210642432028148980000003116659246138030472_);}
	.st21{fill:url(#SVGID_00000173156504432217655010000014031012031721737144_);}
	.st22{fill:url(#SVGID_00000092428364785862969110000011615886344742622129_);}
	.st23{enable-background:new    ;}
</style>
<g id="Capa_2-2">
	<polygon class="st0" points="156.9,26.4 168.5,29.6 172.4,41.9 158.9,36.1 	"/>
	<polygon class="st0" points="20.3,30.2 33.1,25.9 29.7,35.3 16.7,42.2 	"/>
	<path class="st1" d="M120.5,38.3c2.2,2.7,4.8,5,7.9,6.7c0,0-4,6.5-3.7,11.8c0,0-5.6,2.9-11.2,1.5C113.5,58.3,113.2,46.4,120.5,38.3
		z"/>
	<path class="st1" d="M68.1,38.6c-2.2,2.3-4.6,4.3-7.3,6c0,0,4.1,6.1,3.8,11.2c3,1.7,6.6,2.3,10,1.6C74.5,57.3,75.4,46.4,68.1,38.6z
		"/>
	<path class="st2" d="M66.4,69.8c2.3,0.1,4.5,0.2,6.8,0.3c1.1-4.1,1.7-8.4,1.8-12.7c-3.8-0.3-7.6-1.1-11.3-2.3c0,0,0.2,3-2.7,11.2
		L66.4,69.8z"/>
	<path class="st2" d="M121.6,69.9c-2.3,0.1-4.5,0.2-6.8,0.3c-1.1-4.1-1.7-8.4-1.8-12.7c4.3-0.2,8.6-1,12.7-2.3c0,0-0.6,2.7,2.3,10.8
		L121.6,69.9z"/>
	
		<linearGradient id="SVGID_1_" gradientUnits="userSpaceOnUse" x1="434.0145" y1="5.3625" x2="443.0898" y2="5.3625" gradientTransform="matrix(-0.99 -0.13 0.13 -0.99 605.5643 123.8911)">
		<stop  offset="0" style="stop-color:#C6C7C8"/>
		<stop  offset="1" style="stop-color:#ECEDED"/>
	</linearGradient>
	<polygon class="st3" points="167,60.6 176.8,55.6 171.2,68 	"/>
	<path class="st4" d="M33.4,50.1c0,0,8.1,0.6,9.7,1.1l6.7-19.3l-4.1,0.9L33.4,50.1z"/>
	
		<linearGradient id="SVGID_00000181791928224119268720000013147734714589757830_" gradientUnits="userSpaceOnUse" x1="-759.7466" y1="160.647" x2="-750.6586" y2="160.647" gradientTransform="matrix(0.992 -0.126 -0.126 -0.992 786.5634 125.2946)">
		<stop  offset="0" style="stop-color:#C6C7C8"/>
		<stop  offset="1" style="stop-color:#ECEDED"/>
	</linearGradient>
	<polygon style="fill:url(#SVGID_00000181791928224119268720000013147734714589757830_);" points="21.6,60.2 11.8,55.2 17.5,67.6 	
		"/>
	
		<linearGradient id="SVGID_00000039836954755618373390000011682586534898249401_" gradientUnits="userSpaceOnUse" x1="-775.6096" y1="224.9464" x2="-770.1896" y2="224.9464" gradientTransform="matrix(0.98 -0.21 -0.21 -0.98 827.1269 111.1522)">
		<stop  offset="0" style="stop-color:#C6C7C8"/>
		<stop  offset="1" style="stop-color:#ECEDED"/>
	</linearGradient>
	<polygon style="fill:url(#SVGID_00000039836954755618373390000011682586534898249401_);" points="26.7,50.9 21.1,50.3 24.2,55.7 	
		"/>
	
		<linearGradient id="SVGID_00000104707248853748359990000010643676780443309198_" gradientUnits="userSpaceOnUse" x1="1213.3867" y1="42.0877" x2="1209.9567" y2="36.8177" gradientTransform="matrix(-1 0 0 -1 1393.76 95.89)">
		<stop  offset="0" style="stop-color:#C6C7C8"/>
		<stop  offset="1" style="stop-color:#ECEDED"/>
	</linearGradient>
	<polygon style="fill:url(#SVGID_00000104707248853748359990000010643676780443309198_);" points="188.6,55.9 178.7,61.8 
		182.6,52.3 	"/>
	
		<linearGradient id="SVGID_00000182508960020650381900000013423091576391008950_" gradientUnits="userSpaceOnUse" x1="-741.9966" y1="176.3689" x2="-738.7393" y2="176.3689" gradientTransform="matrix(0.992 -0.126 -0.126 -0.992 786.5634 125.2946)">
		<stop  offset="0" style="stop-color:#C6C7C8"/>
		<stop  offset="1" style="stop-color:#ECEDED"/>
	</linearGradient>
	<polygon style="fill:url(#SVGID_00000182508960020650381900000013423091576391008950_);" points="31.4,42.7 28,41.3 29.4,46.2 	"/>
	<polygon class="st9" points="0.3,49.2 0,55.5 26,40.3 28.3,33.9 	"/>
	<polygon class="st10" points="3.2,47.6 11.3,33.8 12.4,42.5 	"/>
	<path class="st2" d="M59.8,29.3c0,0,6.5,4.3,8.9,8.5c-2,2.4-4.4,4.4-7,6.1c0,0-7.3-10.7-11.3-12.7L59.8,29.3z"/>
	<polygon class="st11" points="166.3,25.7 156.5,16.4 155.5,26 159.2,28.7 	"/>
	<polygon class="st12" points="162.5,24.9 141.9,7.1 150.4,30.1 154,24.7 157.3,27.2 	"/>
	
		<linearGradient id="SVGID_00000006707059422578094120000013967293779982750117_" gradientUnits="userSpaceOnUse" x1="674.9514" y1="-85.7967" x2="680.3714" y2="-85.7967" gradientTransform="matrix(-0.98 -0.21 0.21 -0.98 844.3031 111.1522)">
		<stop  offset="0" style="stop-color:#C6C7C8"/>
		<stop  offset="1" style="stop-color:#ECEDED"/>
	</linearGradient>
	<polygon style="fill:url(#SVGID_00000006707059422578094120000013967293779982750117_);" points="162.5,51.8 168.1,51.1 
		164.9,56.6 	"/>
	
		<linearGradient id="SVGID_00000039131092806825841420000008806350530026750097_" gradientUnits="userSpaceOnUse" x1="726.6745" y1="-15.3224" x2="729.9225" y2="-15.3224" gradientTransform="matrix(-0.99 -0.13 0.13 -0.99 883.2444 123.8911)">
		<stop  offset="0" style="stop-color:#C6C7C8"/>
		<stop  offset="1" style="stop-color:#ECEDED"/>
	</linearGradient>
	<polygon style="fill:url(#SVGID_00000039131092806825841420000008806350530026750097_);" points="157.8,43.3 161.2,41.9 
		159.8,46.9 	"/>
	<polygon class="st9" points="188.9,49.9 189.2,56.5 163.2,40.8 160.9,34.2 	"/>
	<polygon class="st10" points="186,48.3 177.9,34.2 176.8,43.1 	"/>
	<path class="st4" d="M155.8,51c0,0-8.1,0.6-9.7,1.1l-6.7-19.9l4.1,1L155.8,51z"/>
	<path class="st15" d="M154.4,36.3L172,69.3l-2,2.3l-26.4-38.5C143.6,33.2,153.6,34.9,154.4,36.3z"/>
	<path class="st2" d="M129.4,29.6c0,0-6.5,4.4-8.9,8.8c2,2.4,4.4,4.5,7,6.2c0,0,7.3-11,11.4-13.1L129.4,29.6z"/>
	<path class="st16" d="M163.9,41.2l-9.5-22.4l-25.1,11.4C129.2,30.2,154.2,35.5,163.9,41.2z"/>
	<polygon class="st11" points="18.4,26.1 28.2,16.7 29.1,26.3 25.4,29.1 	"/>
	<polygon class="st12" points="23.8,24.7 48,7.1 35.9,29.9 32.3,24.5 29.1,26.9 	"/>
	<path class="st17" d="M150.3,20.7c0,0-10.6-6.5-15.6-5.7c0,0-3.4,14-2.3,14.2S150.3,20.7,150.3,20.7z"/>
	<path class="st16" d="M135.8,11.3c0,0-13.6,0.8-22.2,5.9c0,0,5.1,15.1,6.7,22.7c0,0,7.8-9.2,12.1-10.7L135.8,11.3z"/>
	<path class="st10" d="M121.1,39c0,0-4.8-18.5-7.6-25.4c0,0-11.4,8-17.8,10.4c0,0,9.2,26.1,19.9,27L121.1,39z"/>
	<path class="st17" d="M108.3,43.1l-7.4-24.6c0,0-3.3-7.6-6.7,0.6c-3.8,9.3-8.3,24.5-8,26.4c0,0,28.7,20.2,29.1,22.7
		s-1.9-12.6,0.4-17.2"/>
	
		<linearGradient id="SVGID_00000020363865465394671420000014314338478427251342_" gradientUnits="userSpaceOnUse" x1="709.2345" y1="-19.2388" x2="713.3745" y2="-19.2388" gradientTransform="matrix(-0.99 -0.13 0.13 -0.99 883.2444 123.8911)">
		<stop  offset="0" style="stop-color:#C6C7C8"/>
		<stop  offset="1" style="stop-color:#ECEDED"/>
	</linearGradient>
	<polygon style="fill:url(#SVGID_00000020363865465394671420000014314338478427251342_);" points="177.8,49.6 173.6,52.9 
		173.9,47.3 	"/>
	
		<linearGradient id="SVGID_00000128450651927667200510000018398081149809784722_" gradientUnits="userSpaceOnUse" x1="8.2745" y1="42.4971" x2="4.8434" y2="37.2255" gradientTransform="matrix(1 0 0 -1 0 95.89)">
		<stop  offset="0" style="stop-color:#C6C7C8"/>
		<stop  offset="1" style="stop-color:#ECEDED"/>
	</linearGradient>
	<polygon style="fill:url(#SVGID_00000128450651927667200510000018398081149809784722_);" points="0,55.5 9.9,61.4 6,51.9 	"/>
	
		<linearGradient id="SVGID_00000126288984031922068300000012052069530333048971_" gradientUnits="userSpaceOnUse" x1="718.8045" y1="-15.045" x2="722.9445" y2="-15.045" gradientTransform="matrix(-0.99 -0.13 0.13 -0.99 883.2444 123.8911)">
		<stop  offset="0" style="stop-color:#C6C7C8"/>
		<stop  offset="1" style="stop-color:#ECEDED"/>
	</linearGradient>
	<polygon style="fill:url(#SVGID_00000126288984031922068300000012052069530333048971_);" points="168.9,44.2 164.6,47.5 165,41.9 	
		"/>
	<path class="st15" d="M34.8,35.9L17.2,68l2,2.2l26.5-37.4C45.7,32.8,35.5,34.5,34.8,35.9z"/>
	<polygon class="st17" points="155.8,22.2 160.9,34.2 161,34.3 158.5,28.6 166.8,31.6 170.6,39.5 169.2,38.9 176.8,43.1 178.6,28.6 
			"/>
	<path class="st16" d="M25.3,40.7l9.5-21.8L60,30C60,30,35,35.1,25.3,40.7z"/>
	<path class="st16" d="M53.4,11.6c0,0,13.6,0.8,22.2,5.8c0,0-5.1,14.7-6.7,22.1c0,0-7.8-9-12.1-10.4L53.4,11.6z"/>
	<path class="st10" d="M68.1,38.6c0,0,4.8-18,7.6-24.7c0,0,11.4,7.7,17.8,10.1c0,0-9.2,25.4-19.9,26.3L68.1,38.6z"/>
	<path class="st17" d="M38.9,20.7c0,0,10.6-6.3,15.6-5.6c0,0,3.4,13.6,2.3,13.9S38.9,20.7,38.9,20.7z"/>
	<path class="st17" d="M77.8,43.8l8.9-24.4c0,0,7.9-2.4,6.8,3c-1.7,8.1,7,25.3,6.7,26.9c0,0-15.5,8.3-15.9,10.3s-2-5.9-4-9.6"/>
	<path class="st17" d="M79.1,46.2L94.6,9.9c0,0,7.2,33.3,9.7,37.5c0,0-29.9,16.9-30.3,18.9s2-12.4-0.3-16.1"/>
	
		<linearGradient id="SVGID_00000111168193649787507530000015891190009863299498_" gradientUnits="userSpaceOnUse" x1="-759.4066" y1="172.5652" x2="-755.2766" y2="172.5652" gradientTransform="matrix(0.992 -0.126 -0.126 -0.992 786.5634 125.2946)">
		<stop  offset="0" style="stop-color:#C6C7C8"/>
		<stop  offset="1" style="stop-color:#ECEDED"/>
	</linearGradient>
	<polygon style="fill:url(#SVGID_00000111168193649787507530000015891190009863299498_);" points="11.4,48.9 15.6,52 15.2,46.6 	"/>
	
		<linearGradient id="SVGID_00000183206624208858657990000012059989178829808544_" gradientUnits="userSpaceOnUse" x1="-749.8566" y1="176.6342" x2="-745.7266" y2="176.6342" gradientTransform="matrix(0.992 -0.126 -0.126 -0.992 786.5634 125.2946)">
		<stop  offset="0" style="stop-color:#C6C7C8"/>
		<stop  offset="1" style="stop-color:#ECEDED"/>
	</linearGradient>
	<polygon style="fill:url(#SVGID_00000183206624208858657990000012059989178829808544_);" points="20.3,43.6 24.6,46.8 24.2,41.3 	
		"/>
	<polygon class="st17" points="10.6,28.4 12.4,42.5 19.9,38.4 18.5,39 22.5,31.3 30.6,28.4 28.2,34 28.3,33.9 33.4,22.2 	"/>
	<polygon class="st12" points="94.7,0 86.7,19.4 101.2,19.4 	"/>
	<path class="st1" d="M123.5,80.4c-2,1-4.1,1.7-6.3,2c-3,0.3-12.6,0.9-12.6,0.9s6.7-4.3,8.2-8.2c0.7-2.1,1-4.3,0.9-6.6
		c0,0,4.8,0.6,7.2,0c2.5-0.6,4.9-1.4,7.2-2.5c1.1,2.8,1.1,6,0,8.8C127.2,77.1,125.6,79.1,123.5,80.4z"/>
	<path class="st1" d="M65.6,80.6c2,1,4.1,1.7,6.3,2c3.3,0.3,11.1,0.7,10.9,0.7c0,0-4.9-4-6.4-8c-0.7-2.1-1-4.3-0.9-6.6
		c0,0-4.8,0.6-7.2,0c-2.5-0.6-4.9-1.4-7.2-2.6c-1.1,2.8-1.1,6,0,8.8C61.9,77.3,63.5,79.3,65.6,80.6z"/>
	<path class="st16" d="M83.7,83.5c3.8,0.5,7.3,2.4,9.8,5.4c0,0-1.7-8.2-3-13c-1.5-5.4-3.8-22.3-3.8-22.3s-6,5.8-8,7
		c-2.1,1.2-4.4,2-6.8,2.3c0,0-1.8,9.2,0.4,14.6C74.2,82.4,79.4,82.9,83.7,83.5z"/>
	<path class="st16" d="M103.2,83.5c-3.8,0.5-7.3,2.4-9.8,5.4c0,0,1.7-8.2,3-13c1.5-5.4,3.8-22.3,3.8-22.3s6,5.8,8,7
		c2.1,1.3,4.4,2,6.8,2.3c0,0,1.8,9.2-0.4,14.6C112.7,82.4,107.5,82.9,103.2,83.5z"/>
	<path class="st12" d="M77.8,43.8c6.2,14.7,11.4,29.8,15.7,45.1c0,0,9.7-38,14.9-46.3c0,0-3.9-1.3-15.3,6.8
		C93.1,49.4,84,43.6,77.8,43.8z"/>
	<g class="st23">
		<path class="st0" d="M215.8,8.4V16l8.2,4.7l8.2-4.7V8.4h3.2v28.6h-3.2v-7.7l-8.2-4.7l-8.2,4.7v7.7h-3.2V8.4H215.8z M215.8,19.7
			v5.9l5.1-2.9L215.8,19.7z M227.2,22.6l5,2.9v-5.9L227.2,22.6z"/>
		<path class="st0" d="M263.6,8.4h3.8l-11.9,17.2v11.4h-3.2V25.6l-3.4-4.9l-3.4,4.9h-4l5.4-7.7l-6.5-9.5h17l-6.6,9.6l3.1,4.6
			L263.6,8.4z M248.7,15.1l2.4-3.5h-4.7L248.7,15.1z"/>
	</g>
	<g class="st23">
		<path class="st0" d="M280.4,36.9h-9.9V8.4h4h6c9,0,15.2,6.2,15.2,14.2v0.1c0,3.6-1.2,6.8-3.4,9.3l3.7,5h-4l-2.1-2.9
			C287.3,35.8,284.1,36.9,280.4,36.9z M273.7,34h6.7c3,0,5.6-0.9,7.6-2.4l-14.3-19V34z M276.7,11.3l13.5,18c1.3-1.9,2-4.1,2-6.6
			v-0.1c0-6.3-4.6-11.3-11.8-11.3H276.7z"/>
	</g>
	<g class="st23">
		<path class="st0" d="M302.6,14.9v22.1h-3.2V8.4h12.3c5.3,0,10.3,2.6,10.3,8.5c0,4.8-3.2,7.6-7.7,8.4l8.8,11.7h-4
			C313.5,29.6,308.1,22.2,302.6,14.9z M303.8,11.3l8.6,11.5c3.3-0.3,6.3-2.2,6.3-5.8c0-4.2-3.6-5.7-7.3-5.7H303.8z"/>
	</g>
	<g class="st23">
		<path class="st0" d="M327.2,36.9l1.5-3.2v0h0l11.4-25.3h3L356,36.9h-2.4h-1.1h-22.1H330H327.2z M332.5,32.2l15.5-5.5l-6.5-14.7
			L332.5,32.2z M351.3,34l-2-4.4L336.8,34H351.3z"/>
	</g>
	<g class="st23">
		<path class="st0" d="M228.1,77.1c0,4.5-3.7,8.1-8.1,8.1h-7V46.1h7c4.5,0,8.1,3.7,8.1,8.1V77.1z M225.1,54.2c0-2.8-2.3-5.1-5.1-5.1
			H216v33.1h3.9c2.8,0,5.1-2.3,5.1-5.1V54.2z"/>
		<path class="st0" d="M244.1,49.1v15h7v3.1h-7v15h10v3h-13V46.1h12.5v3H244.1z"/>
		<path class="st0" d="M266.5,60.5c0,0-1.7-2.1-1.7-4.9V53c0-4.2,3.4-7.5,7.5-7.5c4.2,0,7.5,3.4,7.5,7.5v4.9l-3,0.3V53
			c0-2.5-2-4.5-4.5-4.5c-2.5,0-4.5,2-4.5,4.5v2.6c0,1.7,1,2.9,1,2.9l9.2,11c0,0,1.8,2.1,1.8,5v3.8c0,4.2-3.4,7.5-7.5,7.5
			c-4.2,0-7.5-3.4-7.5-7.5v-5.7l3-0.3v6.1c0,2.5,2,4.5,4.5,4.5c2.5,0,4.5-2,4.5-4.5v-3.8c0-1.7-1.1-3-1.1-3L266.5,60.5z"/>
		<path class="st0" d="M292.3,85.2V46.1h3v39.2H292.3z"/>
		<path class="st0" d="M315.9,65.2h7.5v20.7l-2.6-0.5V84c-1.3,1.2-3.1,1.9-5,1.9c-4.2,0-7.5-3.4-7.5-7.5V53c0-4.2,3.4-7.5,7.5-7.5
			c4.2,0,7.5,3.4,7.5,7.5v4.6l-3,0.3v-5c0-2.5-2-4.5-4.5-4.5c-2.5,0-4.5,2-4.5,4.5v25.2c0,2.5,2,4.5,4.5,4.5c2.5,0,4.5-2,4.5-4.5
			V68.2h-4.5V65.2z"/>
		<path class="st0" d="M336.2,46.1h3.7l9.2,29.7h0.1V46.1h3v39.2h-3l-9.9-31.3h-0.1v31.3h-3V46.1z"/>
	</g>
</g>
</svg>
